<svg fill="none" height="345" viewBox="0 0 478 345" width="478" xmlns="http://www.w3.org/2000/svg" xmlns:xlink="http://www.w3.org/1999/xlink"><linearGradient id="a"><stop offset="0" stop-color="#071786"/><stop offset=".1509" stop-color="#05136b"/><stop offset=".3236" stop-color="#041055"/><stop offset=".5107" stop-color="#030e45"/><stop offset=".7204" stop-color="#020c3b"/><stop offset="1" stop-color="#020c38"/></linearGradient><linearGradient id="b" gradientUnits="userSpaceOnUse" x1="-.000005" x2="30.2442" xlink:href="#a" y1="129.67" y2="129.67"/><linearGradient id="c" gradientUnits="userSpaceOnUse" x1="38.722" x2="71.7952" y1="197.331" y2="267.449"><stop offset="0" stop-color="#071786"/><stop offset=".1991" stop-color="#06167e"/><stop offset=".512" stop-color="#051367"/><stop offset=".8976" stop-color="#030e43"/><stop offset="1" stop-color="#020c38"/></linearGradient><linearGradient id="d"><stop offset="0" stop-color="#074fc0"/><stop offset=".1616" stop-color="#06329e"/><stop offset=".2876" stop-color="#061f88"/></linearGradient><linearGradient id="e" gradientUnits="userSpaceOnUse" x1="22.0069" x2="22.0069" xlink:href="#d" y1="191.631" y2="275.856"/><linearGradient id="f" gradientUnits="userSpaceOnUse" x1="15.6108" x2="17.5919" xlink:href="#d" y1="331.02" y2="331.02"/><linearGradient id="g" gradientUnits="userSpaceOnUse" x1="14.4502" x2="34.6996" xlink:href="#d" y1="323.306" y2="343.558"/><linearGradient id="h" gradientUnits="userSpaceOnUse" x1="23.481" x2="23.481" y1="338.538" y2="265.234"><stop offset="0" stop-color="#ffd1c1"/><stop offset=".2699" stop-color="#ffcebe"/><stop offset=".5038" stop-color="#ffc5b3"/><stop offset=".7243" stop-color="#ffb6a1"/><stop offset=".9354" stop-color="#ffa288"/><stop offset="1" stop-color="#ff9a7f"/></linearGradient><linearGradient id="i" gradientUnits="userSpaceOnUse" x1="20.805" x2="20.805" xlink:href="#d" y1="338.538" y2="265.234"/><linearGradient id="j" gradientUnits="userSpaceOnUse" x1="20.5645" x2="49.7843" xlink:href="#a" y1="115.208" y2="115.208"/><linearGradient id="k"><stop offset="0" stop-color="#5964ff"/><stop offset=".9973" stop-color="#00beb9"/></linearGradient><linearGradient id="l" gradientUnits="userSpaceOnUse" x1="45.9279" x2="74.6398" xlink:href="#k" y1="155.455" y2="131.39"/><linearGradient id="m" gradientUnits="userSpaceOnUse" x1="33.3374" x2="33.3374" y1="200.033" y2="124.01"><stop offset="0" stop-color="#ffd1c1"/><stop offset=".4889" stop-color="#ffcfbf"/><stop offset=".665" stop-color="#ffcab8"/><stop offset=".7905" stop-color="#ffc0ad"/><stop offset=".892" stop-color="#ffb29c"/><stop offset=".9779" stop-color="#ffa086"/><stop offset="1" stop-color="#ff9a7f"/></linearGradient><linearGradient id="n" gradientUnits="userSpaceOnUse" x1="36.8536" x2="36.8536" y1="208.23" y2="137.213"><stop offset="0" stop-color="#f9fbfc"/><stop offset=".2923" stop-color="#f1f6fd"/><stop offset=".733" stop-color="#dde6fe"/><stop offset=".9973" stop-color="#cddbff"/></linearGradient><linearGradient id="o" gradientUnits="userSpaceOnUse" x1="22.0237" x2="22.0237" xlink:href="#k" y1="136.532" y2="276.085"/><linearGradient id="p" gradientUnits="userSpaceOnUse" x1="46.4316" x2="46.4316" xlink:href="#k" y1="-17.3354" y2="208.85"/><linearGradient id="q"><stop offset="0" stop-color="#e7e6ff"/><stop offset=".3393" stop-color="#c9d2f8"/><stop offset=".7637" stop-color="#aabdf1"/><stop offset="1" stop-color="#9eb5ee"/></linearGradient><linearGradient id="r" gradientUnits="userSpaceOnUse" x1="37.4777" x2="27.1536" xlink:href="#q" y1="154.084" y2="168.754"/><linearGradient id="s"><stop offset="0" stop-color="#ffd1c1"/><stop offset=".3861" stop-color="#ffcfbf"/><stop offset=".5877" stop-color="#ffc9b7"/><stop offset=".7467" stop-color="#ffbda9"/><stop offset=".8825" stop-color="#ffae97"/><stop offset="1" stop-color="#ff9a7f"/></linearGradient><linearGradient id="t" gradientUnits="userSpaceOnUse" x1="26.8756" x2="47.9415" xlink:href="#s" y1="120.148" y2="120.148"/><linearGradient id="u" gradientUnits="userSpaceOnUse" x1="43.5559" x2="47.6794" y1="118.584" y2="125.727"><stop offset="0" stop-color="#eea281"/><stop offset=".246" stop-color="#ee9c7b"/><stop offset=".5823" stop-color="#ed8a6c"/><stop offset=".9693" stop-color="#ec6e52"/><stop offset="1" stop-color="#ec6b50"/></linearGradient><linearGradient id="v" gradientUnits="userSpaceOnUse" x1="23.4214" x2="40.8655" y1="110.269" y2="110.269"><stop offset="0" stop-color="#030f4b"/><stop offset=".1501" stop-color="#030e45"/><stop offset=".5141" stop-color="#020c3b"/><stop offset="1" stop-color="#020c38"/></linearGradient><linearGradient id="w" gradientUnits="userSpaceOnUse" x1="27.4971" x2="27.4971" y1="126.803" y2="115.377"><stop offset="0" stop-color="#ffd1c1"/><stop offset=".3073" stop-color="#fcb"/><stop offset=".729" stop-color="#ffbda9"/><stop offset="1" stop-color="#ffb19a"/></linearGradient><linearGradient id="x"><stop offset="0" stop-color="#ffd1c1"/><stop offset=".3445" stop-color="#ffbaa5"/><stop offset=".7588" stop-color="#ffa389"/><stop offset="1" stop-color="#ff9a7f"/></linearGradient><linearGradient id="y" gradientUnits="userSpaceOnUse" x1="88.6797" x2="102.717" xlink:href="#x" y1="102.096" y2="99.9833"/><linearGradient id="z" gradientUnits="userSpaceOnUse" x1="92.9576" x2="80.6168" xlink:href="#k" y1="103.521" y2="143.578"/><linearGradient id="A" gradientUnits="userSpaceOnUse" x1="95.0474" x2="100.691" xlink:href="#x" y1="95.0346" y2="93.2649"/><linearGradient id="B" gradientUnits="userSpaceOnUse" x1="39.7685" x2="39.7685" xlink:href="#q" y1="147.65" y2="135.928"/><linearGradient id="C" gradientUnits="userSpaceOnUse" x1="43.0334" x2="43.0334" y1="145.925" y2="135.928"><stop offset="0" stop-color="#f9fbfc"/><stop offset=".9973" stop-color="#cddbff"/></linearGradient><linearGradient id="D" gradientUnits="userSpaceOnUse" x1="31.7527" x2="31.7527" y1="148.155" y2="135.317"><stop offset="0" stop-color="#f9fbfc"/><stop offset=".3069" stop-color="#f0f5fd"/><stop offset=".8031" stop-color="#d8e3fe"/><stop offset=".9973" stop-color="#cddbff"/></linearGradient><linearGradient id="E" gradientUnits="userSpaceOnUse" x1="36.5906" x2="36.5906" xlink:href="#q" y1="147.65" y2="143.803"/><linearGradient id="F"><stop offset="0" stop-color="#e3ebfd"/><stop offset=".9973" stop-color="#8f8bff"/></linearGradient><linearGradient id="G" gradientUnits="userSpaceOnUse" x1="152.684" x2="148.779" xlink:href="#F" y1="65.1705" y2="376.316"/><linearGradient id="H" gradientUnits="userSpaceOnUse" x1="251.757" x2="247.852" xlink:href="#F" y1="66.4141" y2="377.558"/><linearGradient id="I" gradientUnits="userSpaceOnUse" x1="251.994" x2="248.088" xlink:href="#F" y1="66.4166" y2="377.564"/><linearGradient id="J" gradientUnits="userSpaceOnUse" x1="252.23" x2="248.325" xlink:href="#F" y1="66.4198" y2="377.566"/><linearGradient id="K" gradientUnits="userSpaceOnUse" x1="207.012" x2="203.107" xlink:href="#F" y1="65.8515" y2="377"/><linearGradient id="L" gradientUnits="userSpaceOnUse" x1="207.248" x2="203.343" xlink:href="#F" y1="65.8546" y2="377.002"/><linearGradient id="M" gradientUnits="userSpaceOnUse" x1="207.485" x2="203.58" xlink:href="#F" y1="65.857" y2="377.005"/><linearGradient id="N" gradientUnits="userSpaceOnUse" x1="207.721" x2="203.816" xlink:href="#F" y1="65.8582" y2="377.01"/><linearGradient id="O" gradientUnits="userSpaceOnUse" x1="207.958" x2="204.052" xlink:href="#F" y1="65.8635" y2="377.011"/><linearGradient id="P" gradientUnits="userSpaceOnUse" x1="205.901" x2="205.901" y1="167.292" y2="342.795"><stop offset="0" stop-color="#ffff3d"/><stop offset=".1434" stop-color="#ffe73c"/><stop offset=".3265" stop-color="#ffcf3b"/><stop offset=".5214" stop-color="#ffbe3a"/><stop offset=".7346" stop-color="#ffb439"/><stop offset="1" stop-color="#ffb139"/></linearGradient><linearGradient id="Q" gradientUnits="userSpaceOnUse" x1="32.6427" x2="33.4087" xlink:href="#k" y1="137.402" y2="169.213"/><linearGradient id="R" gradientUnits="userSpaceOnUse" x1="90.3663" x2="105.512" xlink:href="#x" y1="144.481" y2="153.227"/><linearGradient id="S" gradientUnits="userSpaceOnUse" x1="92.4576" x2="49.8307" xlink:href="#k" y1="147.125" y2="166.879"/><linearGradient id="T" gradientUnits="userSpaceOnUse" x1="379.369" x2="414.319" xlink:href="#s" y1="150.336" y2="172.064"/><linearGradient id="U" gradientUnits="userSpaceOnUse" x1="394.655" x2="387.591" xlink:href="#s" y1="150.666" y2="137.453"/><linearGradient id="V" gradientUnits="userSpaceOnUse" x1="432.316" x2="400.725" xlink:href="#s" y1="162.271" y2="187.562"/><linearGradient id="W" gradientUnits="userSpaceOnUse" x1="417.63" x2="440.097" xlink:href="#F" y1="166.62" y2="167.717"/><linearGradient id="X" gradientUnits="userSpaceOnUse" x1="433.491" x2="433.491" xlink:href="#a" y1="195.625" y2="268.292"/><linearGradient id="Y" gradientUnits="userSpaceOnUse" x1="464.551" x2="448.136" xlink:href="#s" y1="333.439" y2="307.483"/><linearGradient id="Z" gradientUnits="userSpaceOnUse" x1="444.001" x2="477.845" xlink:href="#a" y1="335.539" y2="318.828"/><linearGradient id="aa" gradientUnits="userSpaceOnUse" x1="460.508" x2="428.264" xlink:href="#a" y1="310.718" y2="259.733"/><linearGradient id="ab" gradientUnits="userSpaceOnUse" x1="424.721" x2="424.721" xlink:href="#a" y1="210.078" y2="284.639"/><linearGradient id="ac" gradientUnits="userSpaceOnUse" x1="394.295" x2="394.295" xlink:href="#s" y1="342.816" y2="314.022"/><linearGradient id="ad" gradientUnits="userSpaceOnUse" x1="375.124" x2="413.466" xlink:href="#a" y1="336.361" y2="336.361"/><linearGradient id="ae" gradientUnits="userSpaceOnUse" x1="408.332" x2="408.332" xlink:href="#a" y1="319.475" y2="260.91"/><linearGradient id="af" gradientUnits="userSpaceOnUse" x1="413.332" x2="409.509" y1="143.613" y2="141.406"><stop offset="0" stop-color="#e2b691"/><stop offset="1" stop-color="#ef9367"/></linearGradient><linearGradient id="ag" gradientUnits="userSpaceOnUse" x1="434.041" x2="421.113" xlink:href="#s" y1="152.799" y2="145.334"/><linearGradient id="ah" gradientUnits="userSpaceOnUse" x1="432.371" x2="408.522" xlink:href="#s" y1="143.933" y2="130.162"/><linearGradient id="ai" gradientUnits="userSpaceOnUse" x1="438.109" x2="402.224" xlink:href="#a" y1="135.506" y2="135.506"/><linearGradient id="aj" gradientUnits="userSpaceOnUse" x1="424.858" x2="418.609" xlink:href="#s" y1="141.292" y2="137.683"/><linearGradient id="ak" gradientUnits="userSpaceOnUse" x1="456.684" x2="412.415" xlink:href="#F" y1="184.863" y2="199.35"/><linearGradient id="al" gradientUnits="userSpaceOnUse" x1="226.704" x2="382.133" xlink:href="#d" y1="328.244" y2="107.747"/><linearGradient id="am" gradientUnits="userSpaceOnUse" x1="300.096" x2="253.566" xlink:href="#d" y1="214.415" y2="180.451"/><linearGradient id="an" gradientUnits="userSpaceOnUse" x1="384.886" x2="382.547" xlink:href="#s" y1="140.141" y2="143.519"/><linearGradient id="ao" gradientUnits="userSpaceOnUse" x1="363.989" x2="397.285" xlink:href="#s" y1="150.135" y2="175.366"/><linearGradient id="ap" gradientUnits="userSpaceOnUse" x1="414.486" x2="382.894" xlink:href="#s" y1="165.114" y2="190.406"/><linearGradient id="aq" gradientUnits="userSpaceOnUse" x1="398.765" x2="419.024" xlink:href="#F" y1="146.42" y2="177.424"/><clipPath id="ar"><path d="m0 57h478v288h-478z"/></clipPath><g fill="#008cef"><path d="m55.7921 104.181.1306-.496c-4.7583-1.275-8.3172-4.6148-10.5796-9.9241-2.276-5.3406-2.3888-10.6944-2.3687-12.208.039-2.9722.4972-7.8421 2.466-14.1625 1.8704-6.0083 4.6486-11.8604 8.2551-17.3929 8.2919-12.7203 19.867-23.0079 33.4759-29.7521 5.2169-2.585 10.7822-4.4 16.0966-5.247 5.644-.9008 10.842-.7309 15.452.5044 10.26 2.7491 14.845 11.2477 14.87 27.5564.023 14.8282 8.032 22.1822 16.51 29.9675l.246.2261c4.22 3.8746 7.028 8.6546 7.909 13.4601.919 5.0109-.282 9.5938-3.473 13.2542-2.859 3.2819-6.668 5.3239-11.32 6.0719-4.586.738-10.139.246-16.507-1.46-1.439-.386-2.947-.841-4.48-1.353-2.867-.956-5.421-1.731-7.808-2.371-15.0424-4.0304-27.4554-3.4743-45.7973 2.054-4.9471 1.491-9.303 1.753-12.945.777zm-.002-.001c3.4734.931 7.8124.85 13.2244-.781 19.464-5.8655 31.5255-5.7988 45.5205-2.049 2.513.674 5.087 1.465 7.779 2.364 1.544.514 3.048.969 4.509 1.36 12.77 3.422 22.36 2.091 28.34-4.769 6.873-7.8855 4.194-19.4701-4.474-27.4302s-16.569-15.0754-16.592-29.8177c-.022-14.7443-3.684-24.9516-15.244-28.0491-9.643-2.5838-21.4871-.3839-31.9031 4.7782-14.4023 7.1372-25.8081 17.8595-33.6774 29.9314-7.8695 12.0729-10.7046 24.0416-10.8054 31.8309-.0775 5.9542 2.0611 19.6135 13.323 22.6315z" opacity=".75"/><path d="m60.8139 100.223.1307-.4955c-4.2663-1.1432-7.4585-4.139-9.4889-8.9025-2.0446-4.797-2.1456-9.6068-2.128-10.9661.035-2.671.4474-7.0483 2.2171-12.7315 1.683-5.403 4.1802-10.6653 7.4241-15.6406 7.4573-11.4398 17.8687-20.6933 30.1086-26.7583 4.6901-2.3242 9.6948-3.9564 14.4715-4.7183 5.073-.8098 9.745-.6579 13.887.4519 9.208 2.4672 13.323 10.1007 13.345 24.7516.02 13.3671 7.237 19.9932 14.876 27.0085l.222.2037c3.788 3.4801 6.31 7.7719 7.102 12.0857.824 4.4944-.253 8.6035-3.113 11.8857-2.566 2.9432-5.984 4.7767-10.159 5.4487-4.119.662-9.11.221-14.835-1.313-1.295-.347-2.651-.7558-4.029-1.2152-2.582-.8604-4.881-1.5591-7.03-2.1351-13.549-3.6303-24.7274-3.1296-41.2443 1.8478-4.4447 1.3375-8.3556 1.5735-11.6242.6975zm-.0019-.001c3.1264.838 7.0306.765 11.9018-.7023 17.5179-5.2788 28.3732-5.2182 40.9692-1.8431 2.262.6061 4.577 1.3178 7 2.1262 1.389.4632 2.744.8722 4.059 1.2242 11.493 3.08 20.125 1.882 25.506-4.2933 6.186-7.0966 3.775-17.5221-4.026-24.6868s-14.912-13.5685-14.933-26.836c-.02-13.2684-3.316-22.4558-13.721-25.2437-8.678-2.3254-19.3385-.345-28.7127 4.3008-12.9622 6.4241-23.2265 16.0734-30.3093 26.939-7.0828 10.8655-9.634 21.6375-9.7248 28.6488-.0698 5.3569 1.856 17.6498 11.9908 20.3662z" opacity=".75"/><path d="m65.8357 96.2649.1306-.4953c-3.7753-1.0116-6.6004-3.664-8.3969-7.8812-1.8132-4.2534-1.9024-8.5191-1.8872-9.7242.0302-2.371.3967-6.2558 1.968-11.3005 1.4944-4.797 3.712-9.4703 6.5926-13.8895 6.6237-10.1601 15.8702-18.3786 26.7405-23.7659 8.7658-4.3431 17.9387-5.724 25.1687-3.7867 8.155 2.1852 11.801 8.9535 11.82 21.947.019 11.9071 6.441 17.8049 13.242 24.0492l.197.1812c3.36 3.0852 5.595 6.8885 6.295 10.7112.73 3.9769-.223 7.6131-2.754 10.5171-2.272 2.6063-5.298 4.2296-8.996 4.8244-3.654.5877-8.082.1955-13.163-1.1658-1.151-.3083-2.355-.6723-3.579-1.0798-2.296-.7658-4.34-1.3869-6.251-1.899-12.055-3.2299-21.9997-2.7847-36.6928 1.643-3.9412 1.1873-7.407 1.3968-10.3022.621zm-.001-.0002c2.7785.7445 6.2498.6797 10.5796-.6252 15.5707-4.6921 25.2197-4.6396 36.4157-1.6395 2.011.5386 4.07 1.172 6.223 1.8901 1.236.4116 2.439.7753 3.608 1.0886 10.216 2.7375 17.888 1.6726 22.672-3.816 5.498-6.3081 3.355-15.5757-3.579-21.944-6.935-6.3682-13.256-12.0606-13.274-23.8542-.018-11.7933-2.947-19.9597-12.195-22.4377-7.716-2.0673-17.1907-.3071-25.5232 3.8223-11.5219 5.7101-20.6459 14.2871-26.942 23.9453-6.296 9.6582-8.5633 19.2334-8.6439 25.4657-.0619 4.7629 1.6491 15.6894 10.6588 18.1046z" opacity=".75"/><path d="m70.8585 92.3073.1316-.4951c-7.1984-1.9299-9.0134-10.5517-8.9524-15.3425.0326-2.521.6692-11.5573 7.4798-22.0068 5.7893-8.8808 13.8708-16.0643 23.3721-20.7726 7.6564-3.7939 15.6674-5.0004 21.9774-3.3094 7.104 1.9034 10.279 7.8074 10.297 19.1415.016 10.4469 5.646 15.6168 11.607 21.0899l.173.1588c2.928 2.6897 4.878 6.006 5.489 9.3369.634 3.4591-.194 6.6231-2.395 9.1486-1.978 2.2692-4.614 3.6822-7.833 4.1995-3.188.513-7.054.1697-11.491-1.0191-1.006-.2695-2.057-.5863-3.128-.9441-2.009-.67-3.799-1.2144-5.473-1.6629-10.561-2.8297-19.2715-2.4398-32.1407 1.4381-3.4374 1.036-6.458 1.2184-8.9797.5427l-.1331.4968zm-.002-.0005c2.4316.6515 5.469.5945 9.2571-.5468 13.6245-4.1052 22.0674-4.0588 31.8654-1.4335 1.759.4714 3.56 1.0251 5.444 1.6541 1.081.3607 2.134.6787 3.157.9529 8.939 2.3953 15.652 1.4638 19.838-3.3386 4.811-5.5195 2.935-13.6284-3.132-19.2008-6.066-5.5725-11.598-10.5528-11.614-20.8725-.016-10.3217-2.58-17.4672-10.672-19.6356-6.75-1.8086-15.0418-.2692-22.3329 3.3448-10.0816 4.9962-18.0656 12.5018-23.5745 20.9517-5.5093 8.4509-7.4927 16.8293-7.5638 22.2813-.0531 4.1692 1.4442 13.7295 9.3277 15.843z" opacity=".75"/><path d="m75.8804 88.3494.1316-.4951c-6.1272-1.6428-7.6721-8.9948-7.6197-13.0793.0284-2.1562.5717-9.8842 6.3999-18.8235 4.9549-7.6013 11.8722-13.7487 20.0048-17.7789 6.546-3.245 13.393-4.2774 18.787-2.8322 6.052 1.6216 8.756 6.6602 8.772 16.3368.013 8.9867 4.85 13.4288 9.972 18.1317l.147.135c2.499 2.2955 4.163 5.1226 4.683 7.9626.539 2.9427-.165 5.6327-2.036 7.7798-1.684 1.9313-3.928 3.1351-6.672 3.5763-2.722.4383-6.026.1449-9.82-.8716-.861-.2306-1.76-.5025-2.677-.8074-1.724-.5754-3.26-1.0411-4.696-1.4258-9.065-2.4292-16.5427-2.095-27.5881 1.2332-2.9333.8836-5.5091 1.0409-7.6574.4653l-.1321.4928zm-.002-.0005c2.0837.5583 4.687.5102 7.9346-.4684 11.6786-3.5192 18.915-3.4789 27.312-1.2289 1.508.4039 3.052.8794 4.668 1.4172.926.3086 1.828.5812 2.706.8163 7.662 2.0531 13.416 1.2539 17.003-2.8624 4.124-4.731 2.517-11.6818-2.684-16.4581-5.201-4.776-9.941-9.0459-9.955-17.8904-.013-8.8456-2.212-14.9704-9.147-16.8286-5.786-1.5505-12.892-.23-19.1415 2.8675-8.6415 4.2832-15.485 10.7155-20.2065 17.9593s-6.423 14.4249-6.4832 19.0992c-.046 3.5707 1.2372 11.7658 7.9936 13.5773z" opacity=".75"/><path d="m80.902 84.3915.1316-.4951c-5.056-1.3558-6.331-7.4369-6.2869-10.8162.0228-1.7907.4749-8.2098 5.319-15.6403 4.1202-6.3209 9.8738-11.434 16.6367-14.7865 5.4376-2.6946 11.1226-3.5526 15.5966-2.3538 5 1.3399 7.235 5.5133 7.247 13.5322.012 7.5267 4.057 11.241 8.338 15.1726l.123.1136c4.354 3.9987 5.279 9.4652 2.199 12.9983-2.799 3.2106-7.266 3.94-13.657 2.2275-.715-.1917-1.464-.4177-2.225-.6717-1.438-.4796-2.72-.8688-3.919-1.19-7.571-2.0287-13.8151-1.75-23.0357 1.0287-2.4295.7322-4.561.8622-6.3359.3866l-.1324.4938zm-.001-.0003c1.7367.4654 3.9062.4251 6.6123-.391 9.7324-2.9322 15.7627-2.899 22.7607-1.024 1.256.3367 2.543.7324 3.889 1.1812.772.2576 1.524.4846 2.255.6805 6.385 1.7109 11.18 1.0451 14.17-2.385 3.436-3.9424 2.097-9.7353-2.237-13.7149-4.334-3.9806-8.285-7.5383-8.296-14.9087-.012-7.372-1.843-12.4756-7.624-14.0245-4.822-1.292-10.744-.1921-15.9511 2.3891-7.2012 3.5691-12.9044 8.9292-16.8391 14.9656-3.9348 6.0365-5.3524 12.0208-5.4024 15.9161-.0381 2.9767 1.0313 9.8056 6.6626 11.3156z" opacity=".75"/><path d="m85.9235 80.4334.1316-.495c-4.9903-1.3383-4.9583-8.2592-4.9542-8.553.0183-1.4249.3785-6.5365 4.2379-12.4563 3.2867-5.0412 7.8754-9.1194 13.2696-11.7938 4.3286-2.1454 8.8496-2.8293 12.4066-1.8763 3.949 1.0581 5.714 4.3663 5.722 10.7275.009 6.0664 3.261 9.0517 6.703 12.2131l.099.0901c3.44 3.1599 4.177 7.4729 1.752 10.2565-2.212 2.5366-5.752 3.109-10.824 1.75-.57-.1528-1.167-.3329-1.774-.5349-1.153-.3841-2.18-.6966-3.141-.954-6.077-1.6284-11.0869-1.4051-18.4837.8239-1.9254.5798-3.6119.6837-5.0134.3081l-.1324.4939zm-.001-.0002c1.3898.3724 3.1254.34 5.2898-.3126 7.7855-2.3466 12.6107-2.3192 18.2087-.8192 1.005.2695 2.034.5855 3.111.9451.617.2057 1.22.3873 1.804.5438 5.108 1.3688 8.944.8363 11.336-1.9075 2.749-3.1542 1.677-7.788-1.789-10.9718-3.467-3.1842-6.627-6.0302-6.637-11.927-.01-5.8981-1.474-9.9808-6.099-11.2198-3.857-1.0336-8.594-.1539-12.761 1.9116-5.761 2.8551-10.3231 7.1441-13.4711 11.9732s-4.2817 9.6167-4.3225 12.7327c-.0307 2.3805.8247 7.8443 5.3301 9.0515z" opacity=".75"/></g><path d="m387.425 284.04c-9.923 14.403-35.826 28.783-64.782 21.226-28.955-7.557-29.23-31.341-13.242-39.856 15.989-8.514 21.905-19.044 24.291-32.364 2.387-13.32 15.791-26.225 35.327-18.658 19.537 7.566 40.182 38.046 18.406 69.652z" fill="#ff8a80"/><g clip-path="url(#ar)"><path d="m17.5753 105.541c-2.7534 2.082-4.1506 5.78-3.5342 9.177.5479 3.027 2.5342 6.109 1.3425 8.93-1.2329 2.904-4.9179 3.561-7.94525 4.438-2.32877.685-4.63014 1.794-6.10959 3.712-1.465751 1.931-1.87671 4.807-.438354 6.766 1.712324 2.328 5.643834 3.082 6.013694 5.958.31507 2.424-2.32876 4.396-2.24657 6.834.05479 1.713 1.52055 3.123 3.13699 3.685 1.63013.561 3.39728.438 5.10958.315 2.3562-.164 4.7808-.356 6.9589-1.288 2.1781-.931 4.1096-2.78 4.4932-5.108.3287-1.973-.4658-3.945-.9589-5.89-.4932-1.945-.5754-4.26.8356-5.684.8904-.904 2.2055-1.247 3.1507-2.082 2.0411-1.822 1.6164-5.123.6575-7.684s-2.2877-5.287-1.4932-7.903c.548-1.794 2-3.164 2.822-4.848 3.726-7.616-5.3014-14.218-11.7946-9.328z" fill="url(#b)"/><path d="m36.6438 198.459c-3.4657.973-6.4109 3.89-7.3835 7.301-.4521 1.602-.4932 3.259-.411 4.889.4521 8.917 5.5343 14.847 10.1507 21.723 5.1233 7.629 11.8219 14.163 18.7123 20.23 2.8082 2.479 5.9315 4.63 8.7397 7.122 3.685 3.274 7.9589 8.684 13.274 3.384 3.6576-3.644 1.8356-6.863-.0548-10.396-2.2192-4.137-16.3698-27.955-19.7534-32.653-3.1781-4.424-6.4521-8.78-9.7123-13.135-3.411-4.616-6.3288-10.492-13.5617-8.465z" fill="url(#c)"/><path d="m28.8219 192.474c-3.3287-1.479-7.452-.973-10.315 1.274-1.3425 1.054-2.3973 2.424-3.3425 3.862-5.1507 7.835-4.8219 16.231-5.43836 25.12-.68493 9.861.54796 19.833 2.21916 29.543.685 3.973 1.8082 7.849 2.4795 11.834.8767 5.219.8904 12.629 8.3561 11.684 5.1233-.644 5.685-4.575 6.3836-8.821.8082-4.972 4.3973-34.529 4.6438-40.748.2329-5.848.3425-11.71.4795-17.572.137-6.178 1.4657-13.094-5.4658-16.176z" fill="url(#e)"/><path d="m15.6165 326.29.2054 9.451h1.4795l.2877-7.478z" fill="url(#f)"/><path d="m28.8493 333.536s6.4658 8.875 5.548 10.3c-.9178 1.438-7.9726 1.63-12.2603 0s-4.3972-12.204-6.3424-16.751c-.8083-1.904.9315-7.52 3.3698-7.931 2.4384-.41 5.3151.877 5.3151.877s-2.5069 6.479 4.3698 13.505z" fill="url(#g)"/><path d="m24.6302 321.209c.2192-2.945.5616-7.67.9589-13.012h-9.4521c1.0548 5.848 2.3425 12.176 2.5617 13.642-.0822.945-.137 2.109-.0548 3.438.2055 3.684 1.9452 9.793 4.1918 11.902 2.2465 2.109 7.7671 1.37 7.9726.548.2054-.808-4.1918-7.561-5-10.519-.548-2-.9589-4.547-1.1781-5.999z" fill="url(#h)"/><path d="m14.9315 300.801c.5754 4.301 2.0137 11.752 2.9452 16.614h7.0274c.9589-13.012 2.9316-39.994 3.0411-42.378.137-3.246.6439-6.067-2.1369-8.396-.7535-.63-1.6576-1.068-2.6028-1.273-.0959-.028-.1918-.042-.2877-.055-4.4794-.712-7.5479 2.739-8.1369 6.766-.7535 5.15-1.4658 10.012-1.1918 15.203.2466 4.534.7534 9.04 1.3424 13.519z" fill="url(#i)"/><path d="m23.2055 105.322c-2.2466 3.342-3.2192 7.684-2.274 12.053.9726 4.506 3.7123 8.752 7.3425 11.574 3.9726 3.095 8.5342 2.958 12.8493.465 2.8356-1.63 5.1096-4.122 6.7671-6.944 6.0274-10.163-3.2329-24.7361-14.9863-23.2157-3.9726.5067-7.4794 2.7667-9.6986 6.0677z" fill="url(#j)"/><path d="m84.6712 143.358c-2.1644 2.246-5.4794 3.437-5.7671 3.533-4.9726 1.617-10.1781 2.466-15.3836 2.781-4.2739.26-8.5616.192-12.8219-.192-3.726-.342-16.274-.808-12.6301-7.451.9041-1.657 2.726-2.575 4.4794-3.041 7.9041-2.136 35.7535-2.013 35.7535-2.013z" fill="url(#l)"/><path d="m52.0137 161.314c-.3835-3.986-8.4931-22.107-8.4931-22.107s-2.2466-.41-3.6713-.904c-.7123-3.054-.2191-5.889-.2191-5.889l-8.4247-8.396c1 9.19-2.7123 12.464-2.7123 12.464-1.3151.068-5.6028.287-7.5343.548-1.2466.164-2.3014.534-3.1781.972-1.9589.986-2.9178 3.246-2.3835 5.369 1.4109 5.657 4.3698 18.326 4.6027 25.654.3014 9.643-5.3835 31.009-5.3835 31.009l34.8767-.109c-2.3699-9.643-3.9726-23.326-3.9726-23.339-.9726-7.328 7.178-8.027 6.4931-15.272z" fill="url(#m)"/><path d="m52.7945 161.314c-.3835-3.986-9.2876-21.463-9.2876-21.463s-1.1507-1.137-4.1918-.863c-.0411 0-1.1096 8.67-1.1096 8.67l-8.2329-9.82c-3.0274-.466-4.0274-.617-4.0274-.617-1.315.069-3.0548.206-4.9863.466-.0274 0-.0548.014-.0959.014v64.087c2.8631 1.054 5.8357 1.794 9 2.068 7.5617.644 14.5343-.74 21.0411-3.986-2.3835-10.012-5.3972-23.271-5.3972-23.271-.9589-7.341 7.9863-8.04 7.2876-15.285z" fill="url(#n)"/><path d="m30.3014 210.553c3.6849-2.52 3.0137-11.738 3-16.299-.0274-17.764-.0548-35.529-.0822-53.294-1.9452-2.027-4.7123-4.752-7.274-4.396-1.315.068-3.0548.205-4.9863.466-1.2466.164-2.3013.534-3.1781.972-1.9589.986-2.9178 3.246-2.3835 5.369 1.4109 5.657 4.3698 18.326 4.6027 25.654.3014 9.642-9.3287 36.515-9.315 36.529 3.9452 1.507 15.7945 7.602 19.6164 4.999z" fill="url(#o)"/><path d="m52.7945 161.314c-.3835-3.986-9.2877-22.107-9.2877-22.107s-1.1643-.986-3.9726-.52c.0548 3.452.3151 9.601.3699 13.053.1233 7.629.2603 15.272.3836 22.901.1233 7.738.8767 16.737 1 24.489.0411 2.877-.3562 8.109 2.8356 9.67 1.0548.521 9.3014-2.397 9.2055-2.808-2.3699-9.642-5.3014-28.694-5.3014-28.694-.9863-7.355 5.4657-8.739 4.7671-15.984z" fill="url(#p)"/><path d="m52.5617 164.697c-2.274.808-4.1918 1.575-5.6713 2.342-.3561.178-.6575.37-.9315.575 0-.027 0-.055 0-.055s-21.7123-17.463-29.2329-20.723c-.1917-.082-.3698-.164-.5479-.26 1.0548 4.465 2.4247 10.684 3.2055 16.121 2.2603 1.972 4.6164 3.835 7.0822 5.561 4.2739 3 8.8767 5.575 13.7671 7.41.2877.109 5.6849 1 5.6986.986 0 0 0-.014 0-.027.5617.191 1.2603.274 2.0685.26-.5753-5.698 3.4384-7.752 4.5617-12.19z" fill="url(#r)"/><path d="m47 111.047c.8493 4.931 2.5343 17.176-2.7123 21.792 0 0-11.2877 1.369-16.6164-8.095-5.3151-9.451 17.5068-24.298 19.3287-13.697z" fill="url(#t)"/><path d="m45.1781 117.649v7.465h3.5616z" fill="url(#u)"/><path d="m40.6986 105.349c.4521 1.808.0274 3.781-1.726 5.479-2.3425 2.287-4.6986 4.616-7.3151 6.574l-1.6986 3.329s-2.8493-6.424-2.863-6.438c-.4384-.15-3.5754-1.657-3.6165-2.054-.2602-3.26.2055-6.958 2.3973-9.533 1.9726-2.329 5.2329-3.26 8.1918-2.8628 3.2329.4518 5.9452 2.7808 6.6301 5.5058z" fill="url(#v)"/><path d="m29.9589 118.06s-1.8767-4.041-3.9863-2.205c-2.0959 1.835-.6575 9.409 3.9863 10.943z" fill="url(#w)"/><path d="m93.6849 99.268 6.8081-9.2453s1.26 1.3012.986 2.5339.274 2.1504.192 3.2735c-.096 1.1231.932 3.794.302 5.5879-.631 1.795-3.425 2.849-4.1511 4.52-.726 1.685-2 5.356-2 5.356l-6.1644-2.74 2-4.862s-1.5205-5.7937 1.274-9.3274z" fill="url(#y)"/><path d="m83.3425 144.412s-8.0411-2.383-6.5205-8.601c1.5205-6.219 7.9863-15.094 14.8082-32.694l5.8767 3.15c.0137 0-7.6986 34.57-14.1644 38.145z" fill="url(#z)"/><path d="m96.9041 88.2832 3.4519 3.8762.165 7.5605-6.1785-6.9716s.4794-1.3696 1.4794-.4657l-1.3014-1.7805s-1-2.1367 2.3836-2.2189z" fill="url(#A)"/><path d="m38.2192 147.645 3.1096-2.932-1.7945-8.793c0 .014-1.4658 11.546-1.3151 11.725z" fill="url(#B)"/><path d="m39.5342 135.934 1.7946 8.779 5.2054 1.206z" fill="url(#C)"/><path d="m26.8767 136.29 5.2603 11.861 4.4931-4.341-8.5205-8.492z" fill="url(#D)"/><path d="m36.6302 143.81 1.589 3.835-3.2603-2.233z" fill="url(#E)"/><path d="m271.027 111.91-49.794-35.6525-15.37-10.9985-142.4383 102.027v42.309 64.977 41.857c0 14.573 11.8082 26.379 26.3835 26.379h232.1648c14.575 0 26.383-11.806 26.383-26.379v-41.857-64.977-42.309z" fill="#f2f2f2"/><path d="m319.425 57h-227.0415v262.689h227.0415z" fill="#fff"/><path d="m192.096 73.573h-79.877v67.799h79.877z" fill="url(#G)"/><path d="m299.589 92.406h-96.452v10.807h96.452z" fill="url(#H)"/><path d="m299.589 111.239h-96.452v10.807h96.452z" fill="url(#I)"/><path d="m299.589 130.086h-96.452v10.806h96.452z" fill="url(#J)"/><path d="m299.589 148.905h-187.37v10.807h187.37z" fill="url(#K)"/><path d="m299.589 167.751h-187.37v10.807h187.37z" fill="url(#L)"/><path d="m299.589 186.584h-187.37v10.807h187.37z" fill="url(#M)"/><path d="m299.589 205.417h-187.37v10.807h187.37z" fill="url(#N)"/><path d="m299.589 224.25h-187.37v10.807h187.37z" fill="url(#O)"/><path d="m309.452 191.255-60.63 37.351-29.548 18.203c-8.206 5.054-18.562 5.054-26.767 0l-129.055-79.51v45.692 104.301.684h.0685c.3699 13.766 11.5891 24.833 25.4521 24.833h233.8634c13.863 0 25.082-11.067 25.452-24.833h.068v-.684-104.301-45.692z" fill="url(#P)"/><path d="m319.425 146.562v37.653l11.78-6.876v-22.339z" fill="#a8a191" opacity=".42"/><path d="m175.836 236.536-104.699 98.959c.2328.232.5205.411.7671.643l116.8219-91.658z" fill="#e0c13f" opacity=".42"/><path d="m236.767 236.029-13.74 8.465 116.85 91.644c.26-.233.561-.438.808-.685z" fill="#e0c13f" opacity=".42"/><path d="m51.0822 168.792c0 .014-5.4109-.876-5.6986-.986-4.8904-1.835-9.4932-4.41-13.7671-7.41-3.5069-2.465-6.822-5.177-9.9041-8.135-2.6987-2.589-11.0274-8.835-4.3562-14.012 1.4931-1.164 2.863 0 4.5342.726 7.5206 3.26 29.2192 20.709 29.2192 20.709s.2877 8.369-.0274 9.108z" fill="url(#Q)"/><path d="m87.9589 148.658.7535-.685c.0273-.027.0684-.054.1095-.082l6.9178-4.944c.3014-.219.685-.274 1.0274-.165l11.0819 3.603c.192.068.37.178.507.328.548.603.315 1.562-.438 1.849l-1.178.466c-.206.082-.439.096-.658.055l-3.794-1.096c-.274-.055-.548-.014-.795.123-1.342.754-6.1231 3.37-10.3149 4.657-.5342.165-1.0959-.096-1.3562-.589z" fill="url(#R)"/><path d="m51.0411 168.751s-5.3151-6.341 1.0137-9.601 19.9589-6.437 39.7123-13.532l1.6302 7.232s-34.6439 18.723-42.3562 15.901z" fill="url(#S)"/><path d="m390.027 133.195s4.644 3.218 6.452 7.861c1.809 4.644 1.398 8.657 3.494 13.218 1.643 3.588 10.986 35.597 2.397 33.885-1.123-.219-1.986-1.123-2.726-1.999-6.932-8.218-6.069-18.998-6.685-29.12l-.425-3.944s-4.37-3.89-5.52-8.424z" fill="url(#T)"/><path d="m394.973 144.193s-1.096.671-2.74-.698c-1.644-1.37-5.562-4.493-5.562-4.493s-1.561-.794-1.548 0c.014.794.288 2.63 2.726 4.561 0 0 2.055 1.753 2.329 2.657.288.918 1.096 3.328 3.521 4.958.013 0 3.78-3.629 1.274-6.985z" fill="url(#U)"/><path d="m403.247 188.228c1.684.068 3.356-.89 5.054-1.972 4.151-2.644 8.343-5.205 12.521-7.794 1.863-1.15 3.726-2.315 5.575-3.479 3.781-2.397 9.37-5.848 6.945-11.286-.547-1.233-2.342-2.109-3.561-2.274-.918-.123-1.918.096-2.932.494-2.164.862-4.397 2.575-6.096 3.602-3.479 2.095-6.917 4.273-10.301 6.547-2.164 1.465-4.329 2.958-6.411 4.547-1.726 1.315-4.014 2.794-5.123 4.753-1.178 2.095.027 4.424 1.575 5.725.932.767 1.849 1.096 2.754 1.137z" fill="url(#V)"/><path d="m427.178 178.49c4.562-4.096 16.397-12.149 12.233-19.82-4.617-8.491-21.699 6.438-21.699 6.438z" fill="url(#W)"/><path d="m422.342 268.093c-2.643-10.135-3.78-25.311-3.945-35.734-.082-5.178 2.521-24.12 2.822-29.298.548-9.806 2.576-7.93 14.274-5.437 1.48.315 2.877.917 4.123 1.767 14.699 10.039 7.85 33.036 3.863 46.007-1.726 5.629-3.945 12.299-6.027 17.819-7.548 6.588-15.11 4.876-15.11 4.876z" fill="url(#X)"/><path d="m473.932 314.429c-.617-.616-1.439-1.082-2.206-1.561-.219-.137-2.192-1.562-2.356-1.767-2.452-2.959-8.356-11.766-8.356-11.766l-8.493 6.328s6.78 6.356 8.876 11.533l.014-.014c-2.137 4.904-6.658 12.752-6.658 12.752s-6.561 6.971-6.822 7.437c-.26.466-1.027 1.493-1.356 3.37 0 0 .617 2.602 11.11-3.096 0 0 4.74-2.205 10.452-8.204 1.315-1.206 2.63-2.397 3.931-3.602 1.343-1.233 5.576-4.698 5.822-5.548.096-.328.124-.602.083-.863-.247-1.89-2.768-3.711-4.041-4.999z" fill="url(#Y)"/><path d="m471.781 312.895c-1.877 1.972-4.274 3.602-6.356 4.808-1.493.862-3.315 1.629-5.151 1.958-2.288 4.698-5.507 10.273-5.507 10.273s-6.562 6.971-6.822 7.437-1.027 1.493-1.356 3.369c0 0 .616 2.603 11.11-3.095 0 0 4.739-2.205 10.452-8.204 1.315-1.206 2.63-2.397 3.931-3.603 1.343-1.232 5.576-4.698 5.822-5.547.096-.329.123-.602.082-.849-.26-1.904-2.767-3.725-4.054-5.027-.603-.602-1.411-1.054-2.151-1.52z" fill="url(#Z)"/><path d="m467.205 304.184c-5.904-11.135-18.739-32.762-31.041-45.856-1.767-1.877-7.986 1.588-10.315 2.931-1.794 1.041-3.753 3.52-3.726 5.684.028 1.794 2.603 5.944 3.658 7.286 3 3.767 20.753 28.27 30.192 39.337z" fill="url(#aa)"/><path d="m411.233 210.074h22.712c.028.055.069.096.096.151l.027-.151h15.781l.028.027c-6.507 2.918-5.863 4.945-5.863 4.945-2.261 10.108-9.082 22.462-13.343 23.531-2.424 4.931-4.137 10.149-6.233 13.847-2.89 5.136-6.452 12.053-9.657 16.998-8.781 4.821-15.151-1.343-15.151-1.343-.424-10.464 1.795-23.791 3.863-34.022.836-4.109 5.343-16.724 7.74-23.983z" fill="url(#ab)"/><path d="m412.959 334.221c-.096-.863-.452-1.74-.754-2.589-.082-.247-.739-2.589-.739-2.849-.069-3.835.822-14.409.822-14.409l-10.589-.356s1.328 9.191-.274 14.546h.013c-4.726 2.506-13.15 5.807-13.15 5.807s-9.48 1.343-9.973 1.548c-.507.205-1.74.521-3.164 1.781 0 0-1.151 2.424 10.616 4.52 0 0 5.082 1.232 13.288.109 1.781-.123 3.548-.233 5.329-.356 1.821-.123 7.287-.192 8.013-.699.274-.191.466-.397.603-.616.986-1.63.151-4.629-.041-6.437z" fill="url(#ac)"/><path d="m404.123 314.182c.206.576.37 1.165.535 1.754.219-.562.424-1.137.63-1.713z" fill="#ffd9b6"/><path d="m412.205 331.632c-.054-.137-.287-.986-.479-1.726-.411.206-.808.411-1.205.603-4.562 2.178-9.439 1.849-14.233.726-.096-.028-.178-.041-.261-.069-3.931 1.74-7.739 3.233-7.739 3.233s-9.48 1.356-9.973 1.547c-.507.206-1.74.521-3.164 1.781 0 0-1.151 2.424 10.616 4.52 0 0 5.082 1.233 13.288.11 1.781-.124 3.548-.233 5.329-.357 1.821-.123 7.287-.191 8.013-.698.274-.192.466-.397.603-.616.986-1.644.164-4.644-.027-6.452-.11-.89-.466-1.753-.768-2.602z" fill="url(#ad)"/><path d="m415.329 319.469c.246-14.614 1.52-22.462 1.712-33.776.069-4.026-.027-8.067-.425-12.066-.397-4.041-1.479-9.848-5.753-11.889-2.507-1.192-5.973-1.082-8.384.301-2.356 1.342-2.835 4.123-2.835 6.602-.014 4.808.972 35.584 1.438 50.13-.027 0 14.247.698 14.247.698z" fill="url(#ae)"/><path d="m411.288 138.317 1.534 6.177-3.562.877z" fill="url(#af)"/><path d="m421.37 144.892c-.041 1.972-.425 13.573-.425 13.573 1.192 1.356 6.973 1.835 9.411-.219 1.945-1.644 2.151-3.109 2.151-3.109l-.713-16.943z" fill="url(#ag)"/><path d="m430.931 125.346.631 6.041.972 9.218.274 2.588c-5.876 9.985-15.603 11.04-18.753 7.711-3.151-3.328-4.576-22.38-4.576-22.38z" fill="url(#ah)"/><path d="m428.274 151.795s-7.411-15.642-9.712-16.943c-2.302-1.301-10.014.534-14.124-5.602-4.054-6.068-1.602-9.218 0-9.519 1.603-.301 4.603 5.643 9.918 2.109 5.411-3.602 16.439-3.602 18.137.699 0 0 6.904.698 5.397 10.121-1.506 9.424-4.109 17.327-6.411 18.025z" fill="url(#ai)"/><path d="m423.781 134.783c2.383 1.904 2.274 7.424-2.315 10.478l-1.877-9.053c.233-1.411 2.63-2.685 4.192-1.425z" fill="url(#aj)"/><path d="m431.438 154.918c-6.575.438-16.685 1.958-19.15 9.327-1.315 3.931-1.493 8.232-1.083 12.327.329 3.219.603 6.437.74 9.67.219 5.465.521 11.615-1.37 16.847l-7.876 21.134s26.89 9.286 47.78 2.465c0 0-1.452-48.418-6.041-59.799-1.767-4.397-6.63-12.382-13-11.971z" fill="url(#ak)"/><path d="m272.301 248.466c-5.548 8.67-3.972 20.093 3.713 26.927l9.712 8.643c5.069 4.52 5.932 12.122 1.986 17.655l-25.315 35.529c-4.89 6.862-14.794 7.465-20.589 1.342-6.15-6.519-11.685-15.641-16.685-31.584-9.397-29.955 13.425-57.28 50.658-109.546 37.233-52.267 55.562-82.742 86.945-83.659 17-.493 27.48 1.876 35.699 5.711 7.465 3.479 9.808 12.985 5.027 19.682l-25.315 35.557c-3.945 5.533-11.411 7.204-17.329 3.89l-11.342-6.342c-8.986-5.027-20.288-2.78-26.671 5.301z" fill="url(#al)"/><path d="m314.685 172.737c-9.384 13.313-24.726 35.063-24.726 35.063s-15.343 21.751-24.726 35.064c-9.384 13.313-1.521 25.503 19.712 40.473l-8.918-7.944c-7.685-6.848-9.26-18.257-3.712-26.927l50.48-70.881c6.383-8.081 17.684-10.327 26.671-5.3l9.89 5.533.069-.109c-21.219-14.971-35.343-18.285-44.74-4.972z" fill="url(#am)"/><path d="m381.178 143.385s.027-4.15 1.617-4.273c1.589-.124-.179 8.971-.179 8.971z" fill="url(#an)"/><path d="m375.658 134.783c.246-.575 1-.726 1.438-.287 1.356 1.356 4.178 5.136 5.151 8.519 1.369 4.794.589 8.752 2.26 13.491 1.315 3.726 7.657 36.461-.74 33.954-1.096-.328-1.877-1.301-2.534-2.246-6.151-8.821-4.288-19.463-3.973-29.612l-.068-3.972s-.63-3.287-2.658-6.547c-.109-.178-1.685-6.41-1.959-8.013-.027-.164 0-.328.055-.493z" fill="url(#ao)"/><path d="m385.425 191.077c1.685.068 3.356-.891 5.054-1.973 4.151-2.643 8.343-5.204 12.521-7.793 1.863-1.151 3.726-2.315 5.575-3.479 3.781-2.397 9.37-5.849 6.946-11.286-.548-1.233-2.343-2.109-3.562-2.274-.918-.123-1.918.096-2.932.507-2.164.863-4.397 2.575-6.095 3.602-3.48 2.096-6.918 4.274-10.302 6.547-2.164 1.466-4.329 2.959-6.411 4.548-1.726 1.314-4.013 2.794-5.123 4.752-1.178 2.096.027 4.424 1.575 5.726.932.739 1.836 1.082 2.754 1.123z" fill="url(#ap)"/><path d="m409.342 181.338c4.562-4.095 16.398-12.149 12.233-19.819-4.616-8.492-21.698 6.438-21.698 6.438z" fill="url(#aq)"/></g></svg>